<svg xmlns="http://www.w3.org/2000/svg" width="2040" height="1170" viewBox="0 0 2040 1170"><rect x="0" y="0" width="2040" height="1170" fill="#ffffff"/><rect x="0" y="0" width="2040" height="96" rx="0" fill="#0b2545"  /><rect x="0" y="92" width="2040" height="4" rx="0" fill="#0e7490"  /><text x="54" y="50" font-family="Liberation Sans, Arial, sans-serif" font-size="30" fill="#ffffff" font-weight="bold" text-anchor="start" >Reference Architecture — Tools &amp; Flows</text><text x="54" y="78" font-family="Liberation Sans, Arial, sans-serif" font-size="17" fill="#9fc6e0" font-weight="normal" text-anchor="start" >Concrete mapping of the vision onto NASA tools.  Bold = implementation / tool · small = logical component.</text><text x="1986" y="52" font-family="Liberation Sans, Arial, sans-serif" font-size="15" fill="#9fc6e0" font-weight="bold" text-anchor="end" >NASA Data System Evolution (DSE)</text><text x="1986" y="74" font-family="Liberation Sans, Arial, sans-serif" font-size="13" fill="#6f97b8" font-weight="normal" text-anchor="end" >Architecture Vision</text><line x1="60" y1="116" x2="150" y2="116" stroke="#0f172a" stroke-width="3" /><text x="162" y="121" font-family="Liberation Sans, Arial, sans-serif" font-size="14" fill="#0f172a" font-weight="bold" text-anchor="start" >exists</text><line x1="250" y1="116" x2="340" y2="116" stroke="#7c3aed" stroke-width="3" stroke-dasharray="9 6"/><text x="352" y="121" font-family="Liberation Sans, Arial, sans-serif" font-size="14" fill="#7c3aed" font-weight="bold" text-anchor="start" >in development</text><text x="285.0" y="176" font-family="Liberation Sans, Arial, sans-serif" font-size="21" fill="#1d4e89" font-weight="bold" text-anchor="middle" >Data Product Generation</text><line x1="50" y1="190" x2="520" y2="190" stroke="#99afc9" stroke-width="2" /><text x="750.0" y="176" font-family="Liberation Sans, Arial, sans-serif" font-size="21" fill="#0e7490" font-weight="bold" text-anchor="middle" >Earthdata Cloud Data Lake</text><line x1="560" y1="190" x2="940" y2="190" stroke="#92c0cd" stroke-width="2" /><text x="1180.0" y="176" font-family="Liberation Sans, Arial, sans-serif" font-size="21" fill="#7c3aed" font-weight="bold" text-anchor="middle" >Discoverability</text><line x1="1030" y1="190" x2="1330" y2="190" stroke="#c4a6f6" stroke-width="2" /><text x="1770.0" y="176" font-family="Liberation Sans, Arial, sans-serif" font-size="21" fill="#047857" font-weight="bold" text-anchor="middle" >Services</text><line x1="1530" y1="190" x2="2010" y2="190" stroke="#8ec2b3" stroke-width="2" /><rect x="150" y="228" width="230" height="46" rx="0" fill="#ffffff" stroke="#047857" stroke-width="2" /><rect x="150" y="228" width="9" height="46" rx="0" fill="#047857"  /><text x="174" y="248" font-family="Liberation Sans, Arial, sans-serif" font-size="14.5" fill="#0f172a" font-weight="bold" text-anchor="start" >MAAP</text><text x="174" y="264" font-family="Liberation Sans, Arial, sans-serif" font-size="11" fill="#475569" font-weight="normal" text-anchor="start" >data processing system</text><rect x="50" y="316" width="215" height="52" rx="0" fill="#ffffff" stroke="#7c3aed" stroke-width="2" /><rect x="50" y="316" width="9" height="52" rx="0" fill="#7c3aed"  /><text x="74" y="336" font-family="Liberation Sans, Arial, sans-serif" font-size="14.5" fill="#0f172a" font-weight="bold" text-anchor="start" >STAC</text><text x="74" y="352" font-family="Liberation Sans, Arial, sans-serif" font-size="11" fill="#475569" font-weight="normal" text-anchor="start" >product metadata</text><rect x="285" y="316" width="215" height="52" rx="0" fill="#ffffff" stroke="#0e7490" stroke-width="2" /><rect x="285" y="316" width="9" height="52" rx="0" fill="#0e7490"  /><text x="309" y="336" font-family="Liberation Sans, Arial, sans-serif" font-size="14.5" fill="#0f172a" font-weight="bold" text-anchor="start" >Staging bucket</text><text x="309" y="352" font-family="Liberation Sans, Arial, sans-serif" font-size="11" fill="#475569" font-weight="normal" text-anchor="start" >object storage (staging)</text><rect x="150" y="418" width="230" height="48" rx="0" fill="#ffffff" stroke="#0e7490" stroke-width="2" /><rect x="150" y="418" width="9" height="48" rx="0" fill="#0e7490"  /><text x="174" y="438" font-family="Liberation Sans, Arial, sans-serif" font-size="14.5" fill="#0f172a" font-weight="bold" text-anchor="start" >Cumulus</text><text x="174" y="454" font-family="Liberation Sans, Arial, sans-serif" font-size="11" fill="#475569" font-weight="normal" text-anchor="start" >ingest / archive</text><rect x="60" y="640" width="250" height="60" rx="0" fill="#ffffff" stroke="#b45309" stroke-width="2" /><rect x="60" y="640" width="9" height="60" rx="0" fill="#b45309"  /><text x="84" y="660" font-family="Liberation Sans, Arial, sans-serif" font-size="14.5" fill="#0f172a" font-weight="bold" text-anchor="start" >Earthdata Harmony</text><text x="84" y="676" font-family="Liberation Sans, Arial, sans-serif" font-size="11" fill="#475569" font-weight="normal" text-anchor="start" >GIBS image-pyramid generation</text><rect x="60" y="724" width="250" height="66" rx="0" fill="#ffffff" stroke="#0e7490" stroke-width="2" /><rect x="60" y="724" width="9" height="66" rx="0" fill="#0e7490"  /><text x="84" y="744" font-family="Liberation Sans, Arial, sans-serif" font-size="14.5" fill="#0f172a" font-weight="bold" text-anchor="start" >Object storage</text><text x="84" y="760" font-family="Liberation Sans, Arial, sans-serif" font-size="11" fill="#475569" font-weight="normal" text-anchor="start" >GIBS tile pyramids — NOT the data lake</text><text x="84" y="774" font-family="Liberation Sans, Arial, sans-serif" font-size="11" fill="#475569" font-weight="normal" text-anchor="start" >use only via the GIBS service</text><line x1="200" y1="274" x2="164.05379993423523" y2="307.83171770895507" stroke="#94a3b8" stroke-width="2.2" /><polygon points="157.5,314.0 161.0,305.7 166.0,311.0" fill="#94a3b8"/><text x="152.75" y="287.0" font-family="Liberation Sans, Arial, sans-serif" font-size="10.5" fill="#475569" font-weight="normal" text-anchor="end" >metadata</text><line x1="330" y1="274" x2="384.9195573940464" y2="309.1485167321897" stroke="#94a3b8" stroke-width="2.2" /><polygon points="392.5,314.0 383.6,312.7 387.6,306.5" fill="#94a3b8"/><text x="391.25" y="287.0" font-family="Liberation Sans, Arial, sans-serif" font-size="10.5" fill="#475569" font-weight="normal" text-anchor="start" >data products</text><line x1="392.5" y1="368" x2="303.07453608436487" y2="412.02484377385116" stroke="#94a3b8" stroke-width="2.2" /><polygon points="295.0,416.0 300.8,409.1 304.0,415.7" fill="#94a3b8"/><text x="363.75" y="385.0" font-family="Liberation Sans, Arial, sans-serif" font-size="10.5" fill="#475569" font-weight="normal" text-anchor="start" >moves from</text><line x1="157.5" y1="368" x2="185.51474072349524" y2="409.37561706854683" stroke="#94a3b8" stroke-width="2.0" /><polygon points="190.0,416.0 183.2,411.8 188.6,408.1" fill="#94a3b8"/><line x1="210" y1="466" x2="186.29453662954722" y2="629.0935879887151" stroke="#b45309" stroke-width="2.2" /><polygon points="185.0,638.0 182.6,629.3 189.8,630.4" fill="#b45309"/><text x="211.5" y="545.0" font-family="Liberation Sans, Arial, sans-serif" font-size="10.5" fill="#b45309" font-weight="normal" text-anchor="start" >triggers GIBS generation</text><line x1="185.0" y1="700" x2="185.0" y2="713.0" stroke="#b45309" stroke-width="2.2" /><polygon points="185.0,722.0 181.3,713.8 188.7,713.8" fill="#b45309"/><text x="199.0" y="704.0" font-family="Liberation Sans, Arial, sans-serif" font-size="10.5" fill="#475569" font-weight="normal" text-anchor="start" >writes pyramids</text><rect x="50" y="792" width="470" height="300" rx="0" fill="#f3f6f9" stroke="#1d4e89" stroke-width="1.8" /><text x="68" y="818" font-family="Liberation Sans, Arial, sans-serif" font-size="14" fill="#1d4e89" font-weight="bold" text-anchor="start" >Producer roles &amp; processing levels</text><text x="68" y="837" font-family="Liberation Sans, Arial, sans-serif" font-size="11" fill="#475569" font-weight="italic" text-anchor="start" >All NASA-funded data production — products span Level 0 to Level 4</text><line x1="96.0" y1="866" x2="474.0" y2="866" stroke="#8ea6c4" stroke-width="1.4" /><text x="96.0" y="862" font-family="Liberation Sans, Arial, sans-serif" font-size="11" fill="#475569" font-weight="bold" text-anchor="middle" >L0</text><text x="190.5" y="862" font-family="Liberation Sans, Arial, sans-serif" font-size="11" fill="#475569" font-weight="bold" text-anchor="middle" >L1</text><text x="285.0" y="862" font-family="Liberation Sans, Arial, sans-serif" font-size="11" fill="#475569" font-weight="bold" text-anchor="middle" >L2</text><text x="379.5" y="862" font-family="Liberation Sans, Arial, sans-serif" font-size="11" fill="#475569" font-weight="bold" text-anchor="middle" >L3</text><text x="474.0" y="862" font-family="Liberation Sans, Arial, sans-serif" font-size="11" fill="#475569" font-weight="bold" text-anchor="middle" >L4</text><text x="96.0" y="880" font-family="Liberation Sans, Arial, sans-serif" font-size="11" fill="#1d4e89" font-weight="bold" text-anchor="start" >Mission-funded · standard product suite</text><rect x="96.0" y="886" width="378.0" height="20" rx="0" fill="#d1dbe7" stroke="#1d4e89" stroke-width="1.3" /><text x="285.0" y="900" font-family="Liberation Sans, Arial, sans-serif" font-size="10" fill="#1d4e89" font-weight="normal" text-anchor="middle" >official suite — often L0–L3, sometimes L4</text><text x="285.0" y="928" font-family="Liberation Sans, Arial, sans-serif" font-size="11" fill="#047857" font-weight="bold" text-anchor="start" >Project-funded · value-added products</text><rect x="285.0" y="934" width="189.0" height="20" rx="0" fill="#cce4dd" stroke="#047857" stroke-width="1.3" /><text x="379.5" y="948" font-family="Liberation Sans, Arial, sans-serif" font-size="10" fill="#047857" font-weight="normal" text-anchor="middle" >derived — L2–L4</text><rect x="66" y="970" width="438" height="104" rx="0" fill="#ffffff" stroke="#0e7490" stroke-width="1.8" /><text x="82" y="992.0" font-family="Liberation Sans, Arial, sans-serif" font-size="11" fill="#0f172a" font-weight="normal" text-anchor="start">Boundary set by each mission&#x27;s Data Management Plan — going forward,</text><text x="82" y="1005.8" font-family="Liberation Sans, Arial, sans-serif" font-size="11" fill="#0f172a" font-weight="normal" text-anchor="start">DMPs should also require:</text><circle cx="88" cy="1024" r="3" fill="#0e7490"/><text x="100" y="1028" font-family="Liberation Sans, Arial, sans-serif" font-size="11" fill="#0e7490" font-weight="bold" text-anchor="start" >CF metadata conventions</text><circle cx="88" cy="1040" r="3" fill="#0e7490"/><text x="100" y="1044" font-family="Liberation Sans, Arial, sans-serif" font-size="11" fill="#0e7490" font-weight="bold" text-anchor="start" >Object-store-optimized chunk structure</text><circle cx="88" cy="1056" r="3" fill="#0e7490"/><text x="100" y="1060" font-family="Liberation Sans, Arial, sans-serif" font-size="11" fill="#0e7490" font-weight="bold" text-anchor="start" >Icechunk / Iceberg storage delivery</text><rect x="580" y="228" width="320" height="48" rx="0" fill="#ffffff" stroke="#0b2545" stroke-width="2" /><rect x="580" y="228" width="9" height="48" rx="0" fill="#0b2545"  /><text x="604" y="248" font-family="Liberation Sans, Arial, sans-serif" font-size="14.5" fill="#0f172a" font-weight="bold" text-anchor="start" >CMR (RDS)</text><text x="604" y="264" font-family="Liberation Sans, Arial, sans-serif" font-size="11" fill="#475569" font-weight="normal" text-anchor="start" >collection &amp; granule metadata catalog</text><rect x="590" y="330" width="330" height="224" rx="0" fill="#f0f6f8" stroke="#0e7490" stroke-width="2.4" /><text x="755.0" y="356" font-family="Liberation Sans, Arial, sans-serif" font-size="13" fill="#0e7490" font-weight="bold" text-anchor="middle" >File-based data lake · object store on S3</text><rect x="612" y="372" width="286" height="48" rx="0" fill="#ffffff" stroke="#1d4e89" stroke-width="2" /><rect x="612" y="372" width="9" height="48" rx="0" fill="#1d4e89"  /><text x="636" y="392" font-family="Liberation Sans, Arial, sans-serif" font-size="14.5" fill="#0f172a" font-weight="bold" text-anchor="start" >Archival files</text><text x="636" y="408" font-family="Liberation Sans, Arial, sans-serif" font-size="11" fill="#475569" font-weight="normal" text-anchor="start" >HDF5 / netCDF (cloud-optimized)</text><rect x="612" y="428" width="286" height="48" rx="0" fill="#ffffff" stroke="#4338ca" stroke-width="2" /><rect x="612" y="428" width="9" height="48" rx="0" fill="#4338ca"  /><text x="636" y="448" font-family="Liberation Sans, Arial, sans-serif" font-size="14.5" fill="#0f172a" font-weight="bold" text-anchor="start" >Apache Iceberg</text><text x="636" y="464" font-family="Liberation Sans, Arial, sans-serif" font-size="11" fill="#475569" font-weight="normal" text-anchor="start" >tabular table store</text><rect x="612" y="484" width="286" height="48" rx="0" fill="#ffffff" stroke="#0e7490" stroke-width="2" /><rect x="612" y="484" width="9" height="48" rx="0" fill="#0e7490"  /><text x="636" y="504" font-family="Liberation Sans, Arial, sans-serif" font-size="14.5" fill="#0f172a" font-weight="bold" text-anchor="start" >Icechunk / Zarr</text><text x="636" y="520" font-family="Liberation Sans, Arial, sans-serif" font-size="11" fill="#475569" font-weight="normal" text-anchor="start" >n-D array store (virtual or native)</text><rect x="590" y="596" width="330" height="56" rx="0" fill="#ffffff" stroke="#4338ca" stroke-width="2" /><rect x="590" y="596" width="330" height="56" fill="none" stroke="#7c3aed" stroke-width="2" stroke-dasharray="9 6"/><rect x="590" y="596" width="9" height="56" rx="0" fill="#4338ca"  /><text x="614" y="616" font-family="Liberation Sans, Arial, sans-serif" font-size="14.5" fill="#0f172a" font-weight="bold" text-anchor="start" >TBD data pipeline</text><text x="614" y="632" font-family="Liberation Sans, Arial, sans-serif" font-size="11" fill="#475569" font-weight="normal" text-anchor="start" >event-driven processing</text><line x1="380" y1="442" x2="568.7092696712174" y2="264.84435908416333" stroke="#94a3b8" stroke-width="2.4" /><polygon points="576.0,258.0 572.1,267.2 566.6,261.3" fill="#94a3b8"/><text x="478.0" y="343.0" font-family="Liberation Sans, Arial, sans-serif" font-size="10.5" fill="#475569" font-weight="normal" text-anchor="middle" >publishes to</text><line x1="380" y1="454" x2="576.3989566703593" y2="511.203579612726" stroke="#94a3b8" stroke-width="2.4" /><polygon points="586.0,514.0 576.1,515.4 578.4,507.5" fill="#94a3b8"/><text x="483.0" y="496.0" font-family="Liberation Sans, Arial, sans-serif" font-size="10.5" fill="#475569" font-weight="normal" text-anchor="middle" >moves to</text><line x1="715.0" y1="554" x2="711.1163126113029" y2="585.069499109577" stroke="#7c3aed" stroke-width="2.2" /><polygon points="710.0,594.0 707.4,585.4 714.7,586.3" fill="#7c3aed"/><text x="654.5" y="578.0" font-family="Liberation Sans, Arial, sans-serif" font-size="10.5" fill="#7c3aed" font-weight="normal" text-anchor="end" >S3 notification</text><line x1="790" y1="594" x2="793.8836873886971" y2="562.930500890423" stroke="#7c3aed" stroke-width="2.2" /><polygon points="795.0,554.0 797.6,562.6 790.3,561.7" fill="#7c3aed"/><text x="850.5" y="578.0" font-family="Liberation Sans, Arial, sans-serif" font-size="10.5" fill="#7c3aed" font-weight="normal" text-anchor="start" >appends rows / arrays</text><line x1="755.0" y1="328" x2="742.5861309700971" y2="286.62043656699035" stroke="#94a3b8" stroke-width="2.2" /><polygon points="740.0,278.0 745.9,284.8 738.8,286.9" fill="#94a3b8"/><text x="761.5" y="296.0" font-family="Liberation Sans, Arial, sans-serif" font-size="10.5" fill="#475569" font-weight="normal" text-anchor="start" >registers in</text><rect x="1030" y="228" width="300" height="54" rx="0" fill="#ffffff" stroke="#7c3aed" stroke-width="2" /><rect x="1030" y="228" width="9" height="54" rx="0" fill="#7c3aed"  /><text x="1054" y="248" font-family="Liberation Sans, Arial, sans-serif" font-size="14.5" fill="#0f172a" font-weight="bold" text-anchor="start" >CMR API</text><text x="1054" y="264" font-family="Liberation Sans, Arial, sans-serif" font-size="11" fill="#475569" font-weight="normal" text-anchor="start" >search for collections</text><rect x="1030" y="372" width="300" height="64" rx="0" fill="#ffffff" stroke="#4338ca" stroke-width="2" /><rect x="1030" y="372" width="9" height="64" rx="0" fill="#4338ca"  /><text x="1054" y="392" font-family="Liberation Sans, Arial, sans-serif" font-size="14.5" fill="#0f172a" font-weight="bold" text-anchor="start" >Apache DataFusion</text><text x="1054" y="408" font-family="Liberation Sans, Arial, sans-serif" font-size="11" fill="#475569" font-weight="normal" text-anchor="start" >query engine:</text><text x="1054" y="422" font-family="Liberation Sans, Arial, sans-serif" font-size="11" fill="#475569" font-weight="normal" text-anchor="start" >query &amp; filter collection views</text><rect x="1030" y="512" width="300" height="54" rx="0" fill="#ffffff" stroke="#b45309" stroke-width="2" /><rect x="1030" y="512" width="9" height="54" rx="0" fill="#b45309"  /><text x="1054" y="532" font-family="Liberation Sans, Arial, sans-serif" font-size="14.5" fill="#0f172a" font-weight="bold" text-anchor="start" >Zarr</text><text x="1054" y="548" font-family="Liberation Sans, Arial, sans-serif" font-size="11" fill="#475569" font-weight="normal" text-anchor="start" >array interface</text><line x1="900" y1="252" x2="1016.0028332625586" y2="254.7619722205371" stroke="#94a3b8" stroke-width="2.4" /><polygon points="1026.0,255.0 1016.8,258.9 1017.0,250.7" fill="#94a3b8"/><text x="963.0" y="246.5" font-family="Liberation Sans, Arial, sans-serif" font-size="10.5" fill="#475569" font-weight="normal" text-anchor="middle" >serves</text><line x1="920" y1="606" x2="1065.7773108349122" y2="293.06470607438825" stroke="#7c3aed" stroke-width="2.4" /><polygon points="1070.0,284.0 1069.8,294.0 1062.4,290.6" fill="#7c3aed"/><text x="995.0" y="437.0" font-family="Liberation Sans, Arial, sans-serif" font-size="10.5" fill="#7c3aed" font-weight="normal" text-anchor="middle" >publishes views</text><line x1="920" y1="452" x2="1017.2273775808148" y2="398.80011415389373" stroke="#4338ca" stroke-width="2.4" /><polygon points="1026.0,394.0 1019.9,402.0 1016.0,394.8" fill="#4338ca"/><text x="973.0" y="415.0" font-family="Liberation Sans, Arial, sans-serif" font-size="10.5" fill="#4338ca" font-weight="normal" text-anchor="middle" >table providers</text><line x1="920" y1="508" x2="1016.4020307687541" y2="536.1930467342582" stroke="#0e7490" stroke-width="2.4" /><polygon points="1026.0,539.0 1016.1,540.4 1018.4,532.5" fill="#0e7490"/><text x="973.0" y="515.5" font-family="Liberation Sans, Arial, sans-serif" font-size="10.5" fill="#0e7490" font-weight="normal" text-anchor="middle" >accesses</text><line x1="1180.0" y1="436" x2="1180.0" y2="501.0" stroke="#4338ca" stroke-width="2.2" /><polygon points="1180.0,510.0 1176.3,501.8 1183.7,501.8" fill="#4338ca"/><text x="1194.0" y="477.0" font-family="Liberation Sans, Arial, sans-serif" font-size="10.5" fill="#4338ca" font-weight="normal" text-anchor="start" >array access via</text><rect x="1530" y="208" width="480" height="190" rx="0" fill="#f1f5f9" stroke="#cbd5e1" stroke-width="1.5" /><text x="1770.0" y="235" font-family="Liberation Sans, Arial, sans-serif" font-size="15" fill="#047857" font-weight="bold" text-anchor="middle" >Custom Product Generation</text><rect x="1552" y="252" width="436" height="58" rx="0" fill="#ffffff" stroke="#1d4e89" stroke-width="2" /><rect x="1552" y="252" width="9" height="58" rx="0" fill="#1d4e89"  /><text x="1576" y="272" font-family="Liberation Sans, Arial, sans-serif" font-size="14.5" fill="#0f172a" font-weight="bold" text-anchor="start" >SlideRule</text><text x="1576" y="288" font-family="Liberation Sans, Arial, sans-serif" font-size="11" fill="#475569" font-weight="normal" text-anchor="start" >users select from existing registered algorithms</text><text x="1576" y="302" font-family="Liberation Sans, Arial, sans-serif" font-size="11" fill="#475569" font-weight="normal" text-anchor="start" >python client | HTTP API | web app</text><rect x="1552" y="322" width="436" height="58" rx="0" fill="#ffffff" stroke="#047857" stroke-width="2" /><rect x="1552" y="322" width="9" height="58" rx="0" fill="#047857"  /><text x="1576" y="342" font-family="Liberation Sans, Arial, sans-serif" font-size="14.5" fill="#0f172a" font-weight="bold" text-anchor="start" >MAAP</text><text x="1576" y="358" font-family="Liberation Sans, Arial, sans-serif" font-size="11" fill="#475569" font-weight="normal" text-anchor="start" >authorized users use MAAP data processing system</text><text x="1576" y="372" font-family="Liberation Sans, Arial, sans-serif" font-size="11" fill="#475569" font-weight="normal" text-anchor="start" >cloud-hosted notebooks | DPS API</text><rect x="1530" y="416" width="480" height="250" rx="0" fill="#f1f5f9" stroke="#cbd5e1" stroke-width="1.5" /><text x="1770.0" y="443" font-family="Liberation Sans, Arial, sans-serif" font-size="15" fill="#047857" font-weight="bold" text-anchor="middle" >Access / Subsetting / Reformatting</text><rect x="1552" y="460" width="436" height="58" rx="0" fill="#ffffff" stroke="#1d4e89" stroke-width="2" /><rect x="1552" y="460" width="9" height="58" rx="0" fill="#1d4e89"  /><text x="1576" y="480" font-family="Liberation Sans, Arial, sans-serif" font-size="14.5" fill="#0f172a" font-weight="bold" text-anchor="start" >Earthdata Harmony</text><text x="1576" y="496" font-family="Liberation Sans, Arial, sans-serif" font-size="11" fill="#475569" font-weight="normal" text-anchor="start" >large async requests (servers)</text><text x="1576" y="510" font-family="Liberation Sans, Arial, sans-serif" font-size="11" fill="#475569" font-weight="normal" text-anchor="start" >python client | HTTP API</text><rect x="1552" y="530" width="436" height="58" rx="0" fill="#ffffff" stroke="#b45309" stroke-width="2" /><rect x="1552" y="530" width="9" height="58" rx="0" fill="#b45309"  /><text x="1576" y="550" font-family="Liberation Sans, Arial, sans-serif" font-size="14.5" fill="#0f172a" font-weight="bold" text-anchor="start" >Zarr</text><text x="1576" y="566" font-family="Liberation Sans, Arial, sans-serif" font-size="11" fill="#475569" font-weight="normal" text-anchor="start" >small synchronous requests (serverless)</text><text x="1576" y="580" font-family="Liberation Sans, Arial, sans-serif" font-size="11" fill="#475569" font-weight="normal" text-anchor="start" >python client</text><rect x="1552" y="600" width="436" height="48" rx="0" fill="#ffffff" stroke="#4338ca" stroke-width="2" /><rect x="1552" y="600" width="9" height="48" rx="0" fill="#4338ca"  /><text x="1576" y="620" font-family="Liberation Sans, Arial, sans-serif" font-size="14.5" fill="#0f172a" font-weight="bold" text-anchor="start" >SQL</text><text x="1576" y="636" font-family="Liberation Sans, Arial, sans-serif" font-size="11" fill="#475569" font-weight="normal" text-anchor="start" >small synchronous requests (serverless)</text><rect x="1530" y="684" width="480" height="240" rx="0" fill="#f1f5f9" stroke="#cbd5e1" stroke-width="1.5" /><text x="1770.0" y="711" font-family="Liberation Sans, Arial, sans-serif" font-size="15" fill="#047857" font-weight="bold" text-anchor="middle" >Visualization</text><rect x="1552" y="728" width="436" height="48" rx="0" fill="#ffffff" stroke="#b45309" stroke-width="2" /><rect x="1552" y="728" width="9" height="48" rx="0" fill="#b45309"  /><text x="1576" y="748" font-family="Liberation Sans, Arial, sans-serif" font-size="14.5" fill="#0f172a" font-weight="bold" text-anchor="start" >GIBS</text><text x="1576" y="764" font-family="Liberation Sans, Arial, sans-serif" font-size="11" fill="#475569" font-weight="normal" text-anchor="start" >fast, pre-generated imagery (servers)</text><rect x="1552" y="788" width="436" height="48" rx="0" fill="#ffffff" stroke="#0b2545" stroke-width="2" /><rect x="1552" y="788" width="9" height="48" rx="0" fill="#0b2545"  /><text x="1576" y="808" font-family="Liberation Sans, Arial, sans-serif" font-size="14.5" fill="#0f172a" font-weight="bold" text-anchor="start" >TiTiler</text><text x="1576" y="824" font-family="Liberation Sans, Arial, sans-serif" font-size="11" fill="#475569" font-weight="normal" text-anchor="start" >dynamic (user-driven) imagery (servers)</text><rect x="1552" y="848" width="436" height="58" rx="0" fill="#ffffff" stroke="#7c3aed" stroke-width="2" /><rect x="1552" y="848" width="436" height="58" fill="none" stroke="#7c3aed" stroke-width="2" stroke-dasharray="9 6"/><rect x="1552" y="848" width="9" height="58" rx="0" fill="#7c3aed"  /><text x="1576" y="868" font-family="Liberation Sans, Arial, sans-serif" font-size="14.5" fill="#0f172a" font-weight="bold" text-anchor="start" >deck.gl</text><text x="1576" y="884" font-family="Liberation Sans, Arial, sans-serif" font-size="11" fill="#475569" font-weight="normal" text-anchor="start" >data directly in-browser</text><text x="1576" y="898" font-family="Liberation Sans, Arial, sans-serif" font-size="11" fill="#475569" font-weight="normal" text-anchor="start" >(serverless, authentication barrier)</text><line x1="1526" y1="255" x2="1344.0" y2="255.0" stroke="#94a3b8" stroke-width="2.4" /><polygon points="1334.0,255.0 1343.1,250.9 1343.1,259.1" fill="#94a3b8"/><text x="1430.0" y="247.0" font-family="Liberation Sans, Arial, sans-serif" font-size="10.5" fill="#475569" font-weight="normal" text-anchor="middle" >search for collections</text><line x1="1526" y1="402" x2="1344.0" y2="402.0" stroke="#7c3aed" stroke-width="2.4" /><polygon points="1334.0,402.0 1343.1,397.9 1343.1,406.1" fill="#7c3aed"/><text x="1430.0" y="394.0" font-family="Liberation Sans, Arial, sans-serif" font-size="10.5" fill="#7c3aed" font-weight="normal" text-anchor="middle" >query + filter</text><line x1="1526" y1="539" x2="1344.0" y2="539.0" stroke="#7c3aed" stroke-width="2.4" /><polygon points="1334.0,539.0 1343.1,534.9 1343.1,543.1" fill="#7c3aed"/><text x="1430.0" y="531.0" font-family="Liberation Sans, Arial, sans-serif" font-size="10.5" fill="#7c3aed" font-weight="normal" text-anchor="middle" >access via</text><text x="54" y="1148" font-family="Liberation Sans, Arial, sans-serif" font-size="13" fill="#475569" font-weight="italic" text-anchor="start" >Solid = exists today · dashed purple = in development. Harmony/GIBS tiling store is separate from the data lake. Tool choices are illustrative and open for discussion.</text></svg>